<!DOCTYPE svg PUBLIC "-//W3C//DTD SVG 1.1//EN" "http://www.w3.org/Graphics/SVG/1.1/DTD/svg11.dtd">
<!-- Uploaded to: SVG Repo, www.svgrepo.com, Transformed by: SVG Repo Mixer Tools -->
<svg fill="#FF4052" height="64px" width="64px" version="1.1" id="Layer_1" xmlns="http://www.w3.org/2000/svg" xmlns:xlink="http://www.w3.org/1999/xlink" viewBox="0 0 290 290" xml:space="preserve">
<g id="SVGRepo_bgCarrier" stroke-width="0"/>
<g id="SVGRepo_tracerCarrier" stroke-linecap="round" stroke-linejoin="round"/>
<g id="SVGRepo_iconCarrier"> <g id="XMLID_24_"> <g id="XMLID_29_"> <path d="M265,60h-30h-15V15c0-8.284-6.716-15-15-15H85c-8.284,0-15,6.716-15,15v45H55H25c-8.284,0-15,6.716-15,15s6.716,15,15,15 h5.215H40h210h9.166H265c8.284,0,15-6.716,15-15S273.284,60,265,60z M190,60h-15h-60h-15V30h90V60z"/> </g> <g id="XMLID_86_"> <path d="M40,275c0,8.284,6.716,15,15,15h180c8.284,0,15-6.716,15-15V120H40V275z"/> </g> </g> </g>
</svg>